<svg width="615" height="711" viewBox="0 0 615 711" fill="none" xmlns="http://www.w3.org/2000/svg">
<rect width="615" height="709" fill="#000000" fill-opacity="0"/>
<path fill-rule="evenodd" clip-rule="evenodd" d="M225.007 507C230.83 515.43 237.496 523.265 245.007 530.5C257.604 542.465 272.102 551.385 288.507 557.25C298.057 560.75 307.887 561.92 318.007 560.75C326.087 559.27 333.917 556.94 341.507 553.75C362.372 543.805 379.537 529.39 393.007 510.5C392.922 517.835 393.007 525.17 393.257 532.5C395.267 544.03 401.517 552.365 412.007 557.5C415.067 559.33 418.317 560.83 421.757 562C431.657 565.51 441.742 568.26 452.007 570.25C462.467 572.945 472.802 575.945 483.007 579.25C504.472 584.825 525.972 590.575 547.507 596C547.507 596 546.117 623.52 547.507 624C547.907 624.23 547.572 708.31 547.507 708.75H330.507C249.713 713.255 67.5065 708.75 67.5065 708.75L65.0066 597.5C64.9636 597 65.5066 596.25 65.5066 596.25L67.5066 595.25L93.0066 588.75L120.007 582.25L127.507 580.25L140.507 577.25L165.007 571.25L167 570.5L170.5 569.5L183.007 565.75C189.693 563.41 196.36 561.075 203.007 558.75C205.586 557.545 208.086 556.21 210.507 554.75C218.454 549.61 223.204 542.36 224.757 533C225.007 524.335 225.09 515.67 225.007 507Z" fill="#C8C8C8"/>
<path fill-rule="evenodd" clip-rule="evenodd" d="M393.026 514C393.026 514.5 393.026 515 393.026 515.5C379.556 534.39 362.391 548.805 341.526 558.75C333.936 561.94 326.106 564.27 318.026 565.75C307.906 566.92 298.076 565.75 288.526 562.25C272.121 556.385 257.623 547.465 245.026 535.5C237.516 528.265 230.849 520.43 225.026 512C225.026 507.335 225.026 502.665 225.026 498C224.952 497.475 225.035 496.975 225.276 496.5C240.035 515.075 258.619 528.49 281.026 536.75C291.696 540.67 302.696 542.335 314.026 541.75C346.421 536.18 372.671 520.43 392.776 494.5C393.026 501 393.111 507.5 393.026 514Z" fill="#B8B8B8"/>
<path d="M437 353C411.5 506 372.5 543.5 309 543.5C244 537.5 201 502 177.5 353C154 204 232.822 171.5 306 171.5C379.177 171.5 462.5 200 437 353Z" fill="#D3D4D3"/>
</svg>
